<?xml version="1.0" encoding="UTF-8"?>
<svg width="256" height="256" viewBox="0 0 256 256" fill="none" xmlns="http://www.w3.org/2000/svg" role="img" aria-labelledby="title desc">
  <title id="title">Balance Bot</title>
  <desc id="desc">Friendly robot whose arms form a balance beam with two coins (dark theme).</desc>
  <!-- Palette (dark theme) -->
  <defs>
    <linearGradient id="g1" x1="0" y1="0" x2="1" y2="1">
      <stop offset="0" stop-color="#38BDF8"/>
      <stop offset="1" stop-color="#34D399"/>
    </linearGradient>
  </defs>

  <!-- Background ring -->
  <circle cx="128" cy="128" r="120" fill="url(#g1)" opacity="0.12"/>

  <!-- Bot antenna -->
  <circle cx="128" cy="38" r="8" fill="#38BDF8"/>
  <rect x="124" y="46" width="8" height="18" rx="4" fill="#38BDF8"/>

  <!-- Bot head -->
  <rect x="84" y="70" width="88" height="56" rx="16" fill="#0B1220" stroke="#F3F4F6" stroke-width="6"/>
  <circle cx="108" cy="98" r="10" fill="#38BDF8"/>
  <circle cx="148" cy="98" r="10" fill="#34D399"/>
  <rect x="112" y="112" width="32" height="6" rx="3" fill="#F3F4F6" opacity="0.35"/>

  <!-- Balance beam (arms) -->
  <rect x="48" y="134" width="160" height="10" rx="5" fill="#F3F4F6"/>

  <!-- Cables down to pans -->
  <rect x="76" y="144" width="4" height="22" rx="2" fill="#F3F4F6"/>
  <rect x="176" y="144" width="4" height="22" rx="2" fill="#F3F4F6"/>

  <!-- Pans -->
  <path d="M60 172h40c0 11-9 20-20 20s-20-9-20-20Z" fill="#0B1220" stroke="#F3F4F6" stroke-width="6"/>
  <path d="M156 172h40c0 11-9 20-20 20s-20-9-20-20Z" fill="#0B1220" stroke="#F3F4F6" stroke-width="6"/>

  <!-- Coins -->
  <circle cx="80" cy="174" r="8" fill="#FBBF24"/>
  <circle cx="176" cy="178" r="8" fill="#FBBF24"/>

  <!-- Body plate -->
  <rect x="98" y="188" width="60" height="20" rx="6" fill="#38BDF8" opacity="0.18"/>
</svg>
